<svg xmlns="http://www.w3.org/2000/svg" version="1.1" xmlns:xlink="http://www.w3.org/1999/xlink" xmlns:svgjs="http://svgjs.dev/svgjs" width="2000" height="1733" viewBox="0 0 2000 1733"><g transform="matrix(1,0,0,1,1.4946923400441392,0.7029150575342555)"><svg viewBox="0 0 285 247" data-background-color="#ffffff" preserveAspectRatio="xMidYMid meet" height="1733" width="2000" xmlns="http://www.w3.org/2000/svg" xmlns:xlink="http://www.w3.org/1999/xlink"><g id="tight-bounds" transform="matrix(1,0,0,1,-0.2129687702921501,-0.09997365579206985)"><svg viewBox="0 0 285.42596242874845 247.2" height="247.2" width="285.42596242874845"><g><svg viewBox="0 0 285.42596242874845 247.2" height="247.2" width="285.42596242874845"><g><svg viewBox="0 0 285.42596242874845 247.2" height="247.2" width="285.42596242874845"><g><svg viewBox="0 0 285.42596242874845 247.2" height="247.2" width="285.42596242874845" id="textblock"><g><svg viewBox="0 0 285.42596242874845 247.2" height="247.2" width="285.42596242874845"><path d="M284.758 53.02C283.416 27.36 279.592 20.227 279.592 20.227 267.85-6.202 253.197-0.506 240.034 3.292 216.793 3.446 193.646 9.091 170.459 12.119 121.79 12.581 72.705 4.986 24.278 23.717 19.729 29.464-4.719 24.846 0.809 56.304 2.258 69.39 7.545 83.913 7.384 95.922 8.109 98.026 9.115 93.202 9.545 96.23 11.047 104.39 13.503 100.541 15.516 105.365 12.711 118.246 14.724 128.971 16.643 140.21 13.261 143.135 8.927 141.749 6.982 151.449 6.78 158.479 5.693 157.145 4.499 156.837 3.627 156.632 1.869 157.402 2.164 159.608 3.171 167.152-1.15 171.514 1.561 178.904-0.305 186.91 2.849 193.838 2.419 202.511 2.366 204.255 2.661 205.744 3.131 206.154 5.21 208.361 2.178 212.672 2.5 217.342 23.835 249.262 46.982 227.195 68.841 241.872 74.517 231.608 70.25 245.516 72.518 243.36 74.289 240.846 75.577 251.263 77.576 245.362 77.885 243.668 77.415 239.665 78.516 240.435 79.093 240.846 79.602 240.743 79.683 238.382 79.804 234.841 78.744 237.048 78.462 235.201 81.508 225.861 80.756 248.081 83.615 247.158 83.48 244.438 82.648 240.538 84.353 241.051 86.043 237.151 86.097 233.918 87.6 242.693 87.654 244.592 87.922 245.926 88.351 246.85 93.048 237.305 97.717 250.237 102.642 245.926 105.661 241.205 108.56 248.492 111.619 246.696 112.692 245.259 113.779 242.693 114.813 247.004 127.466 247.928 140.952 244.079 152.948 247.158 185.005 241.41 219.262 249.518 253.063 241.923 261.034 238.998 269.313 234.841 277.082 231.506 277.082 231.506 283.376 222.371 283.376 181.316S284.717 145.393 284.919 112.703C285.12 80.013 286.059 78.679 284.717 53.02Z" opacity="1" fill="#ff5858" data-fill-palette-color="tertiary"></path><g transform="matrix(1,0,0,1,55.76832,26.230666666666668)"><svg width="173.88932242874844" viewBox="0.05000000447034836 -32.150001525878906 29.32000160217285 32.83000183105469" height="194.73866666666666" data-palette-color="#ffffff"><path d="M13.92-8.89L13.92-8.89Q14.72-9.03 14.72-9.7 14.72-10.38 14.29-11.22 13.87-12.06 13.04-12.82L13.04-12.82Q10.86-14.77 7.15-14.77L7.15-14.77Q5.32-14.77 3.74-14.16L3.74-14.16Q2.05-15.01 1.05-16.87 0.05-18.73 0.05-20.87L0.05-20.87Q0.05-26.49 4.74-29.54L4.74-29.54Q8.76-32.15 14.67-32.15L14.67-32.15Q19.07-32.15 22.07-31.21 25.07-30.27 26.98-28.81L26.98-28.81Q27.54-27.2 27.54-25.46 27.54-23.73 27.08-22.31 26.61-20.9 25.73-20.04L25.73-20.04Q24.9-20.65 22.73-21.29 20.56-21.92 18.77-21.92 16.99-21.92 16.39-21.7 15.8-21.48 15.8-21.02L15.8-21.02Q15.8-20.8 15.87-20.61L15.87-20.61Q16.72-20.83 18.07-20.83L18.07-20.83Q22.83-20.83 25.83-18.58L25.83-18.58Q29.37-15.89 29.37-10.52L29.37-10.52Q29.37-5.79 25.54-2.66L25.54-2.66Q21.39 0.68 14.38 0.68L14.38 0.68Q10.52 0.68 7.69 0.11 4.86-0.46 2.17-1.9L2.17-1.9Q0.34-4.57 0.34-7.31 0.34-10.06 2.22-11.87 4.1-13.67 6.85-13.67 9.59-13.67 11.34-12.55 13.09-11.43 13.92-8.89Z" opacity="1" transform="matrix(1,0,0,1,0,0)" fill="#ffffff" class="undefined-text-0" data-fill-palette-color="quaternary" id="text-0"></path></svg></g></svg></g></svg></g></svg></g><g></g></svg></g><defs></defs></svg><rect width="285.42596242874845" height="247.2" fill="none" stroke="none" visibility="hidden"></rect></g></svg></g></svg>